<mxfile host="app.diagrams.net" agent="Mozilla/5.0 (Windows NT 10.0; Win64; x64; rv:128.0) Gecko/20100101 Firefox/128.0" version="24.7.17">
  <diagram name="Page-1" id="TVbX9KgjACldvgUGH_jM">
    <mxGraphModel dx="2589" dy="746" grid="1" gridSize="10" guides="1" tooltips="1" connect="1" arrows="1" fold="1" page="1" pageScale="1" pageWidth="1169" pageHeight="827" math="0" shadow="0">
      <root>
        <mxCell id="0" />
        <mxCell id="1" parent="0" />
        <mxCell id="oGcL695DofoNEhs4g2Zo-1" value="Insee" style="swimlane;fontStyle=0;childLayout=stackLayout;horizontal=1;startSize=60;fillColor=#e1d5e7;horizontalStack=0;resizeParent=1;resizeParentMax=0;resizeLast=0;collapsible=1;marginBottom=0;whiteSpace=wrap;html=1;strokeColor=#9673a6;" parent="1" vertex="1" collapsed="1">
          <mxGeometry x="-930" y="20" width="110" height="60" as="geometry">
            <mxRectangle x="390" y="285" width="140" height="78" as="alternateBounds" />
          </mxGeometry>
        </mxCell>
        <mxCell id="oGcL695DofoNEhs4g2Zo-2" value="+ description: type" style="text;strokeColor=none;fillColor=none;align=left;verticalAlign=top;spacingLeft=4;spacingRight=4;overflow=hidden;rotatable=0;points=[[0,0.5],[1,0.5]];portConstraint=eastwest;whiteSpace=wrap;html=1;" parent="oGcL695DofoNEhs4g2Zo-1" vertex="1">
          <mxGeometry y="26" width="140" height="26" as="geometry" />
        </mxCell>
        <mxCell id="oGcL695DofoNEhs4g2Zo-3" value="+ contenu: type" style="text;strokeColor=none;fillColor=none;align=left;verticalAlign=top;spacingLeft=4;spacingRight=4;overflow=hidden;rotatable=0;points=[[0,0.5],[1,0.5]];portConstraint=eastwest;whiteSpace=wrap;html=1;" parent="oGcL695DofoNEhs4g2Zo-1" vertex="1">
          <mxGeometry y="52" width="140" height="26" as="geometry" />
        </mxCell>
        <mxCell id="oGcL695DofoNEhs4g2Zo-5" value="" style="endArrow=block;startArrow=block;endFill=1;startFill=1;html=1;rounded=0;" parent="1" source="oGcL695DofoNEhs4g2Zo-6" target="oGcL695DofoNEhs4g2Zo-1" edge="1">
          <mxGeometry width="160" relative="1" as="geometry">
            <mxPoint x="-150" y="145" as="sourcePoint" />
            <mxPoint x="-136" y="175" as="targetPoint" />
          </mxGeometry>
        </mxCell>
        <mxCell id="oGcL695DofoNEhs4g2Zo-6" value="Connaissance du SSP" style="swimlane;fontStyle=0;childLayout=stackLayout;horizontal=1;startSize=50;fillColor=#d5e8d4;horizontalStack=0;resizeParent=1;resizeParentMax=0;resizeLast=0;collapsible=1;marginBottom=0;whiteSpace=wrap;html=1;strokeColor=#82b366;" parent="1" vertex="1" collapsed="1">
          <mxGeometry x="-640" y="25" width="230" height="50" as="geometry">
            <mxRectangle x="320" y="10" width="200" height="52" as="alternateBounds" />
          </mxGeometry>
        </mxCell>
        <mxCell id="oGcL695DofoNEhs4g2Zo-7" value="+ description: type" style="text;strokeColor=none;fillColor=none;align=left;verticalAlign=top;spacingLeft=4;spacingRight=4;overflow=hidden;rotatable=0;points=[[0,0.5],[1,0.5]];portConstraint=eastwest;whiteSpace=wrap;html=1;" parent="oGcL695DofoNEhs4g2Zo-6" vertex="1">
          <mxGeometry y="26" width="200" height="26" as="geometry" />
        </mxCell>
        <mxCell id="oGcL695DofoNEhs4g2Zo-10" value="Découvrir le processus de naissance d&#39;une enquête à l&#39;Insee" style="swimlane;fontStyle=0;childLayout=stackLayout;horizontal=1;startSize=70;fillColor=#dae8fc;horizontalStack=0;resizeParent=1;resizeParentMax=0;resizeLast=0;collapsible=1;marginBottom=0;whiteSpace=wrap;html=1;strokeColor=#6c8ebf;" parent="1" vertex="1" collapsed="1">
          <mxGeometry x="-590" y="130" width="170" height="70" as="geometry">
            <mxRectangle x="125" y="240" width="140" height="118" as="alternateBounds" />
          </mxGeometry>
        </mxCell>
        <mxCell id="oGcL695DofoNEhs4g2Zo-11" value="+ niveau : 1" style="text;strokeColor=none;fillColor=none;align=left;verticalAlign=top;spacingLeft=4;spacingRight=4;overflow=hidden;rotatable=0;points=[[0,0.5],[1,0.5]];portConstraint=eastwest;whiteSpace=wrap;html=1;" parent="oGcL695DofoNEhs4g2Zo-10" vertex="1">
          <mxGeometry y="40" width="140" height="26" as="geometry" />
        </mxCell>
        <mxCell id="oGcL695DofoNEhs4g2Zo-12" value="+ field: type" style="text;strokeColor=none;fillColor=none;align=left;verticalAlign=top;spacingLeft=4;spacingRight=4;overflow=hidden;rotatable=0;points=[[0,0.5],[1,0.5]];portConstraint=eastwest;whiteSpace=wrap;html=1;" parent="oGcL695DofoNEhs4g2Zo-10" vertex="1">
          <mxGeometry y="66" width="140" height="26" as="geometry" />
        </mxCell>
        <mxCell id="oGcL695DofoNEhs4g2Zo-13" value="+ field: type" style="text;strokeColor=none;fillColor=none;align=left;verticalAlign=top;spacingLeft=4;spacingRight=4;overflow=hidden;rotatable=0;points=[[0,0.5],[1,0.5]];portConstraint=eastwest;whiteSpace=wrap;html=1;" parent="oGcL695DofoNEhs4g2Zo-10" vertex="1">
          <mxGeometry y="92" width="140" height="26" as="geometry" />
        </mxCell>
        <mxCell id="1R7VQAPE6wTlqesCjZck-61" value="Niveau 1" style="ellipse;whiteSpace=wrap;html=1;aspect=fixed;fillColor=#fff2cc;strokeColor=#d6b656;fontSize=11;" parent="oGcL695DofoNEhs4g2Zo-10" vertex="1">
          <mxGeometry x="67.5" y="-5" width="45" height="45" as="geometry" />
        </mxCell>
        <mxCell id="oGcL695DofoNEhs4g2Zo-14" value="" style="endArrow=block;startArrow=block;endFill=1;startFill=1;html=1;rounded=0;" parent="1" source="BeYtnEABJfwrNFvSlJTl-14" target="oGcL695DofoNEhs4g2Zo-10" edge="1">
          <mxGeometry width="160" relative="1" as="geometry">
            <mxPoint x="-350" y="205" as="sourcePoint" />
            <mxPoint x="-350" y="253" as="targetPoint" />
          </mxGeometry>
        </mxCell>
        <mxCell id="oGcL695DofoNEhs4g2Zo-23" value="" style="endArrow=block;startArrow=block;endFill=1;startFill=1;html=1;rounded=0;" parent="1" source="BeYtnEABJfwrNFvSlJTl-1" target="oGcL695DofoNEhs4g2Zo-15" edge="1">
          <mxGeometry width="160" relative="1" as="geometry">
            <mxPoint x="-154" y="223" as="sourcePoint" />
            <mxPoint x="-280" y="314" as="targetPoint" />
          </mxGeometry>
        </mxCell>
        <mxCell id="oGcL695DofoNEhs4g2Zo-29" value="" style="endArrow=block;startArrow=block;endFill=1;startFill=1;html=1;rounded=0;" parent="1" source="oGcL695DofoNEhs4g2Zo-10" target="oGcL695DofoNEhs4g2Zo-32" edge="1">
          <mxGeometry width="160" relative="1" as="geometry">
            <mxPoint x="-546" y="515" as="sourcePoint" />
            <mxPoint x="-670" y="665" as="targetPoint" />
          </mxGeometry>
        </mxCell>
        <mxCell id="oGcL695DofoNEhs4g2Zo-32" value="Naissance d&#39;une enquête" style="swimlane;fontStyle=0;childLayout=stackLayout;horizontal=1;startSize=60;fillColor=#ffe6cc;horizontalStack=0;resizeParent=1;resizeParentMax=0;resizeLast=0;collapsible=1;marginBottom=0;whiteSpace=wrap;html=1;strokeColor=#d79b00;" parent="1" vertex="1" collapsed="1">
          <mxGeometry x="-560" y="230" width="110" height="60" as="geometry">
            <mxRectangle x="10" y="400" width="110" height="110" as="alternateBounds" />
          </mxGeometry>
        </mxCell>
        <mxCell id="oGcL695DofoNEhs4g2Zo-33" value="&lt;div&gt;- Vidéo&lt;/div&gt;&lt;div&gt;- Fichiers&lt;br&gt;&lt;/div&gt;" style="text;strokeColor=none;fillColor=none;align=left;verticalAlign=top;spacingLeft=4;spacingRight=4;overflow=hidden;rotatable=0;points=[[0,0.5],[1,0.5]];portConstraint=eastwest;whiteSpace=wrap;html=1;" parent="oGcL695DofoNEhs4g2Zo-32" vertex="1">
          <mxGeometry y="60" width="110" height="50" as="geometry" />
        </mxCell>
        <mxCell id="oGcL695DofoNEhs4g2Zo-48" value="Droits et obligations" style="swimlane;fontStyle=0;childLayout=stackLayout;horizontal=1;startSize=50;fillColor=#ffe6cc;horizontalStack=0;resizeParent=1;resizeParentMax=0;resizeLast=0;collapsible=1;marginBottom=0;whiteSpace=wrap;html=1;strokeColor=#d79b00;" parent="1" vertex="1" collapsed="1">
          <mxGeometry x="-375" y="335" width="150" height="50" as="geometry">
            <mxRectangle x="-85" y="520" width="130" height="76" as="alternateBounds" />
          </mxGeometry>
        </mxCell>
        <mxCell id="oGcL695DofoNEhs4g2Zo-49" value="scorm" style="text;strokeColor=none;fillColor=none;align=left;verticalAlign=top;spacingLeft=4;spacingRight=4;overflow=hidden;rotatable=0;points=[[0,0.5],[1,0.5]];portConstraint=eastwest;whiteSpace=wrap;html=1;" parent="oGcL695DofoNEhs4g2Zo-48" vertex="1">
          <mxGeometry y="50" width="130" height="26" as="geometry" />
        </mxCell>
        <mxCell id="oGcL695DofoNEhs4g2Zo-57" value="" style="endArrow=block;startArrow=block;endFill=1;startFill=1;html=1;rounded=0;" parent="1" source="oGcL695DofoNEhs4g2Zo-15" target="oGcL695DofoNEhs4g2Zo-48" edge="1">
          <mxGeometry width="160" relative="1" as="geometry">
            <mxPoint x="-310" y="793" as="sourcePoint" />
            <mxPoint x="-365" y="865" as="targetPoint" />
          </mxGeometry>
        </mxCell>
        <mxCell id="1R7VQAPE6wTlqesCjZck-1" value="Explorer le fonctionnement et l&#39;organisation de l&#39;Insee" style="swimlane;fontStyle=0;childLayout=stackLayout;horizontal=1;startSize=40;fillColor=#dae8fc;horizontalStack=0;resizeParent=1;resizeParentMax=0;resizeLast=0;collapsible=1;marginBottom=0;whiteSpace=wrap;html=1;strokeColor=#6c8ebf;" parent="1" vertex="1" collapsed="1">
          <mxGeometry x="-1150" y="220" width="230" height="40" as="geometry">
            <mxRectangle x="570" y="240" width="140" height="118" as="alternateBounds" />
          </mxGeometry>
        </mxCell>
        <mxCell id="1R7VQAPE6wTlqesCjZck-2" value="+ niveau : 3" style="text;strokeColor=none;fillColor=none;align=left;verticalAlign=top;spacingLeft=4;spacingRight=4;overflow=hidden;rotatable=0;points=[[0,0.5],[1,0.5]];portConstraint=eastwest;whiteSpace=wrap;html=1;" parent="1R7VQAPE6wTlqesCjZck-1" vertex="1">
          <mxGeometry y="40" width="140" height="26" as="geometry" />
        </mxCell>
        <mxCell id="1R7VQAPE6wTlqesCjZck-3" value="+objectifs :" style="text;strokeColor=none;fillColor=none;align=left;verticalAlign=top;spacingLeft=4;spacingRight=4;overflow=hidden;rotatable=0;points=[[0,0.5],[1,0.5]];portConstraint=eastwest;whiteSpace=wrap;html=1;" parent="1R7VQAPE6wTlqesCjZck-1" vertex="1">
          <mxGeometry y="66" width="140" height="26" as="geometry" />
        </mxCell>
        <mxCell id="1R7VQAPE6wTlqesCjZck-4" value="+ duree : 3-4 heures" style="text;strokeColor=none;fillColor=none;align=left;verticalAlign=top;spacingLeft=4;spacingRight=4;overflow=hidden;rotatable=0;points=[[0,0.5],[1,0.5]];portConstraint=eastwest;whiteSpace=wrap;html=1;" parent="1R7VQAPE6wTlqesCjZck-1" vertex="1">
          <mxGeometry y="92" width="140" height="26" as="geometry" />
        </mxCell>
        <mxCell id="1R7VQAPE6wTlqesCjZck-5" value="A la découverte de la ville Insee" style="swimlane;fontStyle=0;childLayout=stackLayout;horizontal=1;startSize=60;fillColor=#ffe6cc;horizontalStack=0;resizeParent=1;resizeParentMax=0;resizeLast=0;collapsible=1;marginBottom=0;whiteSpace=wrap;html=1;strokeColor=#d79b00;" parent="1" vertex="1" collapsed="1">
          <mxGeometry x="-1160" y="320" width="110" height="60" as="geometry">
            <mxRectangle x="720" y="140" width="110" height="80" as="alternateBounds" />
          </mxGeometry>
        </mxCell>
        <mxCell id="1R7VQAPE6wTlqesCjZck-6" value="&lt;div&gt;- Vidéo&lt;/div&gt;&lt;div&gt;- Fichier&lt;br&gt;&lt;/div&gt;" style="text;strokeColor=none;fillColor=none;align=left;verticalAlign=top;spacingLeft=4;spacingRight=4;overflow=hidden;rotatable=0;points=[[0,0.5],[1,0.5]];portConstraint=eastwest;whiteSpace=wrap;html=1;" parent="1R7VQAPE6wTlqesCjZck-5" vertex="1">
          <mxGeometry y="40" width="110" height="40" as="geometry" />
        </mxCell>
        <mxCell id="1R7VQAPE6wTlqesCjZck-13" value="" style="endArrow=block;startArrow=block;endFill=1;startFill=1;html=1;rounded=0;" parent="1" source="1R7VQAPE6wTlqesCjZck-1" target="1R7VQAPE6wTlqesCjZck-5" edge="1">
          <mxGeometry width="160" relative="1" as="geometry">
            <mxPoint x="79" y="743" as="sourcePoint" />
            <mxPoint x="45" y="785" as="targetPoint" />
          </mxGeometry>
        </mxCell>
        <mxCell id="1R7VQAPE6wTlqesCjZck-14" value="" style="endArrow=block;startArrow=block;endFill=1;startFill=1;html=1;rounded=0;" parent="1" source="1R7VQAPE6wTlqesCjZck-1" target="1R7VQAPE6wTlqesCjZck-17" edge="1">
          <mxGeometry width="160" relative="1" as="geometry">
            <mxPoint x="170" y="753" as="sourcePoint" />
            <mxPoint x="348.181818181818" y="525" as="targetPoint" />
          </mxGeometry>
        </mxCell>
        <mxCell id="1R7VQAPE6wTlqesCjZck-15" value="" style="endArrow=block;startArrow=block;endFill=1;startFill=1;html=1;rounded=0;" parent="1" source="1R7VQAPE6wTlqesCjZck-1" target="1R7VQAPE6wTlqesCjZck-19" edge="1">
          <mxGeometry width="160" relative="1" as="geometry">
            <mxPoint x="222" y="753" as="sourcePoint" />
            <mxPoint x="450.4545454545455" y="525" as="targetPoint" />
          </mxGeometry>
        </mxCell>
        <mxCell id="1R7VQAPE6wTlqesCjZck-17" value="Les liens entre les quartiers" style="swimlane;fontStyle=0;childLayout=stackLayout;horizontal=1;startSize=60;fillColor=#ffe6cc;horizontalStack=0;resizeParent=1;resizeParentMax=0;resizeLast=0;collapsible=1;marginBottom=0;whiteSpace=wrap;html=1;strokeColor=#d79b00;" parent="1" vertex="1" collapsed="1">
          <mxGeometry x="-1040" y="325" width="110" height="60" as="geometry">
            <mxRectangle x="720" y="140" width="110" height="80" as="alternateBounds" />
          </mxGeometry>
        </mxCell>
        <mxCell id="1R7VQAPE6wTlqesCjZck-18" value="&lt;div&gt;- Vidéo&lt;/div&gt;&lt;div&gt;- Fichier&lt;br&gt;&lt;/div&gt;" style="text;strokeColor=none;fillColor=none;align=left;verticalAlign=top;spacingLeft=4;spacingRight=4;overflow=hidden;rotatable=0;points=[[0,0.5],[1,0.5]];portConstraint=eastwest;whiteSpace=wrap;html=1;" parent="1R7VQAPE6wTlqesCjZck-17" vertex="1">
          <mxGeometry y="40" width="110" height="40" as="geometry" />
        </mxCell>
        <mxCell id="1R7VQAPE6wTlqesCjZck-19" value="Organisation fonctionnelle et territoriale de l&#39;Institut" style="swimlane;fontStyle=0;childLayout=stackLayout;horizontal=1;startSize=60;fillColor=#ffe6cc;horizontalStack=0;resizeParent=1;resizeParentMax=0;resizeLast=0;collapsible=1;marginBottom=0;whiteSpace=wrap;html=1;strokeColor=#d79b00;" parent="1" vertex="1" collapsed="1">
          <mxGeometry x="-910" y="320" width="120" height="60" as="geometry">
            <mxRectangle x="720" y="140" width="110" height="80" as="alternateBounds" />
          </mxGeometry>
        </mxCell>
        <mxCell id="1R7VQAPE6wTlqesCjZck-20" value="&lt;div&gt;- Vidéo&lt;/div&gt;&lt;div&gt;- Fichier&lt;br&gt;&lt;/div&gt;" style="text;strokeColor=none;fillColor=none;align=left;verticalAlign=top;spacingLeft=4;spacingRight=4;overflow=hidden;rotatable=0;points=[[0,0.5],[1,0.5]];portConstraint=eastwest;whiteSpace=wrap;html=1;" parent="1R7VQAPE6wTlqesCjZck-19" vertex="1">
          <mxGeometry y="40" width="110" height="40" as="geometry" />
        </mxCell>
        <mxCell id="1R7VQAPE6wTlqesCjZck-21" value="Le parcours de la donnée" style="swimlane;fontStyle=0;childLayout=stackLayout;horizontal=1;startSize=60;fillColor=#ffe6cc;horizontalStack=0;resizeParent=1;resizeParentMax=0;resizeLast=0;collapsible=1;marginBottom=0;whiteSpace=wrap;html=1;strokeColor=#d79b00;" parent="1" vertex="1" collapsed="1">
          <mxGeometry x="-565" y="440" width="110" height="60" as="geometry">
            <mxRectangle x="720" y="140" width="110" height="80" as="alternateBounds" />
          </mxGeometry>
        </mxCell>
        <mxCell id="1R7VQAPE6wTlqesCjZck-22" value="&lt;div&gt;- Vidéo&lt;/div&gt;&lt;div&gt;- Fichier&lt;br&gt;&lt;/div&gt;" style="text;strokeColor=none;fillColor=none;align=left;verticalAlign=top;spacingLeft=4;spacingRight=4;overflow=hidden;rotatable=0;points=[[0,0.5],[1,0.5]];portConstraint=eastwest;whiteSpace=wrap;html=1;" parent="1R7VQAPE6wTlqesCjZck-21" vertex="1">
          <mxGeometry y="40" width="110" height="40" as="geometry" />
        </mxCell>
        <mxCell id="1R7VQAPE6wTlqesCjZck-25" value="" style="endArrow=block;startArrow=block;endFill=1;startFill=1;html=1;rounded=0;" parent="1" source="BeYtnEABJfwrNFvSlJTl-24" target="1R7VQAPE6wTlqesCjZck-21" edge="1">
          <mxGeometry width="160" relative="1" as="geometry">
            <mxPoint x="445" y="365" as="sourcePoint" />
            <mxPoint x="437" y="520" as="targetPoint" />
            <Array as="points" />
          </mxGeometry>
        </mxCell>
        <mxCell id="1R7VQAPE6wTlqesCjZck-27" value="Découvrir les métiers de l&#39;Insee" style="swimlane;fontStyle=0;childLayout=stackLayout;horizontal=1;startSize=40;fillColor=#dae8fc;horizontalStack=0;resizeParent=1;resizeParentMax=0;resizeLast=0;collapsible=1;marginBottom=0;whiteSpace=wrap;html=1;strokeColor=#6c8ebf;" parent="1" vertex="1" collapsed="1">
          <mxGeometry x="-795" y="414" width="200" height="40" as="geometry">
            <mxRectangle x="125" y="240" width="140" height="118" as="alternateBounds" />
          </mxGeometry>
        </mxCell>
        <mxCell id="1R7VQAPE6wTlqesCjZck-28" value="+ niveau : 1" style="text;strokeColor=none;fillColor=none;align=left;verticalAlign=top;spacingLeft=4;spacingRight=4;overflow=hidden;rotatable=0;points=[[0,0.5],[1,0.5]];portConstraint=eastwest;whiteSpace=wrap;html=1;" parent="1R7VQAPE6wTlqesCjZck-27" vertex="1">
          <mxGeometry y="40" width="140" height="26" as="geometry" />
        </mxCell>
        <mxCell id="1R7VQAPE6wTlqesCjZck-29" value="+ field: type" style="text;strokeColor=none;fillColor=none;align=left;verticalAlign=top;spacingLeft=4;spacingRight=4;overflow=hidden;rotatable=0;points=[[0,0.5],[1,0.5]];portConstraint=eastwest;whiteSpace=wrap;html=1;" parent="1R7VQAPE6wTlqesCjZck-27" vertex="1">
          <mxGeometry y="66" width="140" height="26" as="geometry" />
        </mxCell>
        <mxCell id="1R7VQAPE6wTlqesCjZck-30" value="+ field: type" style="text;strokeColor=none;fillColor=none;align=left;verticalAlign=top;spacingLeft=4;spacingRight=4;overflow=hidden;rotatable=0;points=[[0,0.5],[1,0.5]];portConstraint=eastwest;whiteSpace=wrap;html=1;" parent="1R7VQAPE6wTlqesCjZck-27" vertex="1">
          <mxGeometry y="92" width="140" height="26" as="geometry" />
        </mxCell>
        <mxCell id="1R7VQAPE6wTlqesCjZck-31" value="" style="endArrow=block;startArrow=block;endFill=1;startFill=1;html=1;rounded=0;" parent="1" source="1R7VQAPE6wTlqesCjZck-27" target="1R7VQAPE6wTlqesCjZck-34" edge="1">
          <mxGeometry width="160" relative="1" as="geometry">
            <mxPoint x="-546" y="825" as="sourcePoint" />
            <mxPoint x="-670" y="975" as="targetPoint" />
          </mxGeometry>
        </mxCell>
        <mxCell id="1R7VQAPE6wTlqesCjZck-34" value="La production statistique" style="swimlane;fontStyle=0;childLayout=stackLayout;horizontal=1;startSize=60;fillColor=#ffe6cc;horizontalStack=0;resizeParent=1;resizeParentMax=0;resizeLast=0;collapsible=1;marginBottom=0;whiteSpace=wrap;html=1;strokeColor=#d79b00;" parent="1" vertex="1" collapsed="1">
          <mxGeometry x="-1090" y="414" width="110" height="60" as="geometry">
            <mxRectangle x="10" y="400" width="110" height="110" as="alternateBounds" />
          </mxGeometry>
        </mxCell>
        <mxCell id="1R7VQAPE6wTlqesCjZck-35" value="&lt;div&gt;- Vidéo&lt;/div&gt;&lt;div&gt;- Fichiers&lt;br&gt;&lt;/div&gt;" style="text;strokeColor=none;fillColor=none;align=left;verticalAlign=top;spacingLeft=4;spacingRight=4;overflow=hidden;rotatable=0;points=[[0,0.5],[1,0.5]];portConstraint=eastwest;whiteSpace=wrap;html=1;" parent="1R7VQAPE6wTlqesCjZck-34" vertex="1">
          <mxGeometry y="60" width="110" height="50" as="geometry" />
        </mxCell>
        <mxCell id="1R7VQAPE6wTlqesCjZck-53" value="" style="endArrow=block;startArrow=block;endFill=1;startFill=1;html=1;rounded=0;" parent="1" source="oGcL695DofoNEhs4g2Zo-1" target="BeYtnEABJfwrNFvSlJTl-18" edge="1">
          <mxGeometry width="160" relative="1" as="geometry">
            <mxPoint x="-880" y="90" as="sourcePoint" />
            <mxPoint x="-620" y="365" as="targetPoint" />
          </mxGeometry>
        </mxCell>
        <mxCell id="BeYtnEABJfwrNFvSlJTl-1" value="Environnement de l&#39;Insee" style="swimlane;fontStyle=0;childLayout=stackLayout;horizontal=1;startSize=60;fillColor=#e1d5e7;horizontalStack=0;resizeParent=1;resizeParentMax=0;resizeLast=0;collapsible=1;marginBottom=0;whiteSpace=wrap;html=1;strokeColor=#9673a6;" vertex="1" collapsed="1" parent="1">
          <mxGeometry x="-240" y="20" width="120" height="60" as="geometry">
            <mxRectangle x="390" y="285" width="140" height="78" as="alternateBounds" />
          </mxGeometry>
        </mxCell>
        <mxCell id="BeYtnEABJfwrNFvSlJTl-2" value="+ description: type" style="text;strokeColor=none;fillColor=none;align=left;verticalAlign=top;spacingLeft=4;spacingRight=4;overflow=hidden;rotatable=0;points=[[0,0.5],[1,0.5]];portConstraint=eastwest;whiteSpace=wrap;html=1;" vertex="1" parent="BeYtnEABJfwrNFvSlJTl-1">
          <mxGeometry y="26" width="140" height="26" as="geometry" />
        </mxCell>
        <mxCell id="BeYtnEABJfwrNFvSlJTl-3" value="+ contenu: type" style="text;strokeColor=none;fillColor=none;align=left;verticalAlign=top;spacingLeft=4;spacingRight=4;overflow=hidden;rotatable=0;points=[[0,0.5],[1,0.5]];portConstraint=eastwest;whiteSpace=wrap;html=1;" vertex="1" parent="BeYtnEABJfwrNFvSlJTl-1">
          <mxGeometry y="52" width="140" height="26" as="geometry" />
        </mxCell>
        <mxCell id="BeYtnEABJfwrNFvSlJTl-4" value="" style="endArrow=block;startArrow=block;endFill=1;startFill=1;html=1;rounded=0;" edge="1" parent="1" source="oGcL695DofoNEhs4g2Zo-6" target="BeYtnEABJfwrNFvSlJTl-1">
          <mxGeometry width="160" relative="1" as="geometry">
            <mxPoint x="-252" y="85" as="sourcePoint" />
            <mxPoint x="-460" y="152" as="targetPoint" />
          </mxGeometry>
        </mxCell>
        <mxCell id="oGcL695DofoNEhs4g2Zo-15" value="Connaître les droits et devoirs d&#39;un fonctionnaire" style="swimlane;fontStyle=0;childLayout=stackLayout;horizontal=1;startSize=70;fillColor=#dae8fc;horizontalStack=0;resizeParent=1;resizeParentMax=0;resizeLast=0;collapsible=1;marginBottom=0;whiteSpace=wrap;html=1;strokeColor=#6c8ebf;" parent="1" vertex="1" collapsed="1">
          <mxGeometry x="-380" y="190" width="160" height="70" as="geometry">
            <mxRectangle x="350" y="670" width="140" height="128" as="alternateBounds" />
          </mxGeometry>
        </mxCell>
        <mxCell id="oGcL695DofoNEhs4g2Zo-16" value="+ niveau : 2" style="text;strokeColor=none;fillColor=none;align=left;verticalAlign=top;spacingLeft=4;spacingRight=4;overflow=hidden;rotatable=0;points=[[0,0.5],[1,0.5]];portConstraint=eastwest;whiteSpace=wrap;html=1;" parent="oGcL695DofoNEhs4g2Zo-15" vertex="1">
          <mxGeometry y="50" width="140" height="26" as="geometry" />
        </mxCell>
        <mxCell id="oGcL695DofoNEhs4g2Zo-17" value="+ objectifs: type" style="text;strokeColor=none;fillColor=none;align=left;verticalAlign=top;spacingLeft=4;spacingRight=4;overflow=hidden;rotatable=0;points=[[0,0.5],[1,0.5]];portConstraint=eastwest;whiteSpace=wrap;html=1;" parent="oGcL695DofoNEhs4g2Zo-15" vertex="1">
          <mxGeometry y="76" width="140" height="26" as="geometry" />
        </mxCell>
        <mxCell id="oGcL695DofoNEhs4g2Zo-18" value="+ durée: 3-4 heures" style="text;strokeColor=none;fillColor=none;align=left;verticalAlign=top;spacingLeft=4;spacingRight=4;overflow=hidden;rotatable=0;points=[[0,0.5],[1,0.5]];portConstraint=eastwest;whiteSpace=wrap;html=1;" parent="oGcL695DofoNEhs4g2Zo-15" vertex="1">
          <mxGeometry y="102" width="140" height="26" as="geometry" />
        </mxCell>
        <mxCell id="BeYtnEABJfwrNFvSlJTl-6" value="S&#39;initier au code de bonne pratiques de la statistique européenne" style="swimlane;fontStyle=0;childLayout=stackLayout;horizontal=1;startSize=70;fillColor=#dae8fc;horizontalStack=0;resizeParent=1;resizeParentMax=0;resizeLast=0;collapsible=1;marginBottom=0;whiteSpace=wrap;html=1;strokeColor=#6c8ebf;" vertex="1" collapsed="1" parent="1">
          <mxGeometry x="-200" y="190" width="190" height="70" as="geometry">
            <mxRectangle x="350" y="670" width="140" height="128" as="alternateBounds" />
          </mxGeometry>
        </mxCell>
        <mxCell id="BeYtnEABJfwrNFvSlJTl-7" value="+ niveau : 2" style="text;strokeColor=none;fillColor=none;align=left;verticalAlign=top;spacingLeft=4;spacingRight=4;overflow=hidden;rotatable=0;points=[[0,0.5],[1,0.5]];portConstraint=eastwest;whiteSpace=wrap;html=1;" vertex="1" parent="BeYtnEABJfwrNFvSlJTl-6">
          <mxGeometry y="50" width="140" height="26" as="geometry" />
        </mxCell>
        <mxCell id="BeYtnEABJfwrNFvSlJTl-8" value="+ objectifs: type" style="text;strokeColor=none;fillColor=none;align=left;verticalAlign=top;spacingLeft=4;spacingRight=4;overflow=hidden;rotatable=0;points=[[0,0.5],[1,0.5]];portConstraint=eastwest;whiteSpace=wrap;html=1;" vertex="1" parent="BeYtnEABJfwrNFvSlJTl-6">
          <mxGeometry y="76" width="140" height="26" as="geometry" />
        </mxCell>
        <mxCell id="BeYtnEABJfwrNFvSlJTl-9" value="+ durée: 3-4 heures" style="text;strokeColor=none;fillColor=none;align=left;verticalAlign=top;spacingLeft=4;spacingRight=4;overflow=hidden;rotatable=0;points=[[0,0.5],[1,0.5]];portConstraint=eastwest;whiteSpace=wrap;html=1;" vertex="1" parent="BeYtnEABJfwrNFvSlJTl-6">
          <mxGeometry y="102" width="140" height="26" as="geometry" />
        </mxCell>
        <mxCell id="BeYtnEABJfwrNFvSlJTl-10" value="" style="endArrow=block;startArrow=block;endFill=1;startFill=1;html=1;rounded=0;" edge="1" parent="1" source="BeYtnEABJfwrNFvSlJTl-6" target="BeYtnEABJfwrNFvSlJTl-1">
          <mxGeometry width="160" relative="1" as="geometry">
            <mxPoint x="-480" y="135" as="sourcePoint" />
            <mxPoint x="-730" y="135" as="targetPoint" />
          </mxGeometry>
        </mxCell>
        <mxCell id="BeYtnEABJfwrNFvSlJTl-11" value="Qualiquiz" style="swimlane;fontStyle=0;childLayout=stackLayout;horizontal=1;startSize=50;fillColor=#ffe6cc;horizontalStack=0;resizeParent=1;resizeParentMax=0;resizeLast=0;collapsible=1;marginBottom=0;whiteSpace=wrap;html=1;strokeColor=#d79b00;" vertex="1" collapsed="1" parent="1">
          <mxGeometry x="-175" y="335" width="140" height="50" as="geometry">
            <mxRectangle x="-85" y="520" width="130" height="76" as="alternateBounds" />
          </mxGeometry>
        </mxCell>
        <mxCell id="BeYtnEABJfwrNFvSlJTl-12" value="scorm" style="text;strokeColor=none;fillColor=none;align=left;verticalAlign=top;spacingLeft=4;spacingRight=4;overflow=hidden;rotatable=0;points=[[0,0.5],[1,0.5]];portConstraint=eastwest;whiteSpace=wrap;html=1;" vertex="1" parent="BeYtnEABJfwrNFvSlJTl-11">
          <mxGeometry y="50" width="130" height="26" as="geometry" />
        </mxCell>
        <mxCell id="BeYtnEABJfwrNFvSlJTl-13" value="" style="endArrow=block;startArrow=block;endFill=1;startFill=1;html=1;rounded=0;" edge="1" parent="1" source="BeYtnEABJfwrNFvSlJTl-6" target="BeYtnEABJfwrNFvSlJTl-11">
          <mxGeometry width="160" relative="1" as="geometry">
            <mxPoint x="-425" y="180" as="sourcePoint" />
            <mxPoint x="-425" y="240" as="targetPoint" />
            <Array as="points" />
          </mxGeometry>
        </mxCell>
        <mxCell id="BeYtnEABJfwrNFvSlJTl-14" value="Processus" style="swimlane;fontStyle=0;childLayout=stackLayout;horizontal=1;startSize=60;fillColor=#e1d5e7;horizontalStack=0;resizeParent=1;resizeParentMax=0;resizeLast=0;collapsible=1;marginBottom=0;whiteSpace=wrap;html=1;strokeColor=#9673a6;" vertex="1" collapsed="1" parent="1">
          <mxGeometry x="-770" y="135" width="110" height="60" as="geometry">
            <mxRectangle x="390" y="285" width="140" height="78" as="alternateBounds" />
          </mxGeometry>
        </mxCell>
        <mxCell id="BeYtnEABJfwrNFvSlJTl-15" value="+ description: type" style="text;strokeColor=none;fillColor=none;align=left;verticalAlign=top;spacingLeft=4;spacingRight=4;overflow=hidden;rotatable=0;points=[[0,0.5],[1,0.5]];portConstraint=eastwest;whiteSpace=wrap;html=1;" vertex="1" parent="BeYtnEABJfwrNFvSlJTl-14">
          <mxGeometry y="26" width="140" height="26" as="geometry" />
        </mxCell>
        <mxCell id="BeYtnEABJfwrNFvSlJTl-16" value="+ contenu: type" style="text;strokeColor=none;fillColor=none;align=left;verticalAlign=top;spacingLeft=4;spacingRight=4;overflow=hidden;rotatable=0;points=[[0,0.5],[1,0.5]];portConstraint=eastwest;whiteSpace=wrap;html=1;" vertex="1" parent="BeYtnEABJfwrNFvSlJTl-14">
          <mxGeometry y="52" width="140" height="26" as="geometry" />
        </mxCell>
        <mxCell id="BeYtnEABJfwrNFvSlJTl-17" value="" style="endArrow=block;startArrow=block;endFill=1;startFill=1;html=1;rounded=0;" edge="1" parent="1" source="oGcL695DofoNEhs4g2Zo-1" target="BeYtnEABJfwrNFvSlJTl-14">
          <mxGeometry width="160" relative="1" as="geometry">
            <mxPoint x="-680" y="149" as="sourcePoint" />
            <mxPoint x="-770" y="151" as="targetPoint" />
          </mxGeometry>
        </mxCell>
        <mxCell id="BeYtnEABJfwrNFvSlJTl-18" value="Organisation" style="swimlane;fontStyle=0;childLayout=stackLayout;horizontal=1;startSize=60;fillColor=#e1d5e7;horizontalStack=0;resizeParent=1;resizeParentMax=0;resizeLast=0;collapsible=1;marginBottom=0;whiteSpace=wrap;html=1;strokeColor=#9673a6;" vertex="1" collapsed="1" parent="1">
          <mxGeometry x="-930" y="135" width="110" height="60" as="geometry">
            <mxRectangle x="390" y="285" width="140" height="78" as="alternateBounds" />
          </mxGeometry>
        </mxCell>
        <mxCell id="BeYtnEABJfwrNFvSlJTl-19" value="+ description: type" style="text;strokeColor=none;fillColor=none;align=left;verticalAlign=top;spacingLeft=4;spacingRight=4;overflow=hidden;rotatable=0;points=[[0,0.5],[1,0.5]];portConstraint=eastwest;whiteSpace=wrap;html=1;" vertex="1" parent="BeYtnEABJfwrNFvSlJTl-18">
          <mxGeometry y="26" width="140" height="26" as="geometry" />
        </mxCell>
        <mxCell id="BeYtnEABJfwrNFvSlJTl-20" value="+ contenu: type" style="text;strokeColor=none;fillColor=none;align=left;verticalAlign=top;spacingLeft=4;spacingRight=4;overflow=hidden;rotatable=0;points=[[0,0.5],[1,0.5]];portConstraint=eastwest;whiteSpace=wrap;html=1;" vertex="1" parent="BeYtnEABJfwrNFvSlJTl-18">
          <mxGeometry y="52" width="140" height="26" as="geometry" />
        </mxCell>
        <mxCell id="BeYtnEABJfwrNFvSlJTl-24" value="Suivre le parcours de la donnée à l&#39;Insee" style="swimlane;fontStyle=0;childLayout=stackLayout;horizontal=1;startSize=70;fillColor=#dae8fc;horizontalStack=0;resizeParent=1;resizeParentMax=0;resizeLast=0;collapsible=1;marginBottom=0;whiteSpace=wrap;html=1;strokeColor=#6c8ebf;" vertex="1" collapsed="1" parent="1">
          <mxGeometry x="-590" y="330" width="160" height="70" as="geometry">
            <mxRectangle x="125" y="240" width="140" height="118" as="alternateBounds" />
          </mxGeometry>
        </mxCell>
        <mxCell id="BeYtnEABJfwrNFvSlJTl-25" value="+ niveau : 1" style="text;strokeColor=none;fillColor=none;align=left;verticalAlign=top;spacingLeft=4;spacingRight=4;overflow=hidden;rotatable=0;points=[[0,0.5],[1,0.5]];portConstraint=eastwest;whiteSpace=wrap;html=1;" vertex="1" parent="BeYtnEABJfwrNFvSlJTl-24">
          <mxGeometry y="40" width="140" height="26" as="geometry" />
        </mxCell>
        <mxCell id="BeYtnEABJfwrNFvSlJTl-26" value="+ field: type" style="text;strokeColor=none;fillColor=none;align=left;verticalAlign=top;spacingLeft=4;spacingRight=4;overflow=hidden;rotatable=0;points=[[0,0.5],[1,0.5]];portConstraint=eastwest;whiteSpace=wrap;html=1;" vertex="1" parent="BeYtnEABJfwrNFvSlJTl-24">
          <mxGeometry y="66" width="140" height="26" as="geometry" />
        </mxCell>
        <mxCell id="BeYtnEABJfwrNFvSlJTl-27" value="+ field: type" style="text;strokeColor=none;fillColor=none;align=left;verticalAlign=top;spacingLeft=4;spacingRight=4;overflow=hidden;rotatable=0;points=[[0,0.5],[1,0.5]];portConstraint=eastwest;whiteSpace=wrap;html=1;" vertex="1" parent="BeYtnEABJfwrNFvSlJTl-24">
          <mxGeometry y="92" width="140" height="26" as="geometry" />
        </mxCell>
        <mxCell id="BeYtnEABJfwrNFvSlJTl-28" value="Niveau 1" style="ellipse;whiteSpace=wrap;html=1;aspect=fixed;fillColor=#fff2cc;strokeColor=#d6b656;fontSize=11;" vertex="1" parent="BeYtnEABJfwrNFvSlJTl-24">
          <mxGeometry x="67.5" y="-5" width="45" height="45" as="geometry" />
        </mxCell>
        <mxCell id="BeYtnEABJfwrNFvSlJTl-29" value="" style="endArrow=block;startArrow=block;endFill=1;startFill=1;html=1;rounded=0;" edge="1" parent="1" source="BeYtnEABJfwrNFvSlJTl-14" target="BeYtnEABJfwrNFvSlJTl-24">
          <mxGeometry width="160" relative="1" as="geometry">
            <mxPoint x="-622" y="200" as="sourcePoint" />
            <mxPoint x="-587" y="220" as="targetPoint" />
          </mxGeometry>
        </mxCell>
        <mxCell id="BeYtnEABJfwrNFvSlJTl-31" value="" style="endArrow=block;startArrow=block;endFill=1;startFill=1;html=1;rounded=0;" edge="1" parent="1" source="BeYtnEABJfwrNFvSlJTl-18" target="1R7VQAPE6wTlqesCjZck-1">
          <mxGeometry width="160" relative="1" as="geometry">
            <mxPoint x="-865" y="200" as="sourcePoint" />
            <mxPoint x="-865" y="230" as="targetPoint" />
          </mxGeometry>
        </mxCell>
        <mxCell id="BeYtnEABJfwrNFvSlJTl-32" value="CATEGORIE" style="swimlane;fontStyle=0;childLayout=stackLayout;horizontal=1;startSize=50;fillColor=#d5e8d4;horizontalStack=0;resizeParent=1;resizeParentMax=0;resizeLast=0;collapsible=1;marginBottom=0;whiteSpace=wrap;html=1;strokeColor=#82b366;" vertex="1" collapsed="1" parent="1">
          <mxGeometry x="-340" y="430" width="230" height="50" as="geometry">
            <mxRectangle x="320" y="10" width="200" height="52" as="alternateBounds" />
          </mxGeometry>
        </mxCell>
        <mxCell id="BeYtnEABJfwrNFvSlJTl-33" value="+ description: type" style="text;strokeColor=none;fillColor=none;align=left;verticalAlign=top;spacingLeft=4;spacingRight=4;overflow=hidden;rotatable=0;points=[[0,0.5],[1,0.5]];portConstraint=eastwest;whiteSpace=wrap;html=1;" vertex="1" parent="BeYtnEABJfwrNFvSlJTl-32">
          <mxGeometry y="26" width="200" height="26" as="geometry" />
        </mxCell>
        <mxCell id="BeYtnEABJfwrNFvSlJTl-34" value="SOUS-CATEGORIE" style="swimlane;fontStyle=0;childLayout=stackLayout;horizontal=1;startSize=60;fillColor=#e1d5e7;horizontalStack=0;resizeParent=1;resizeParentMax=0;resizeLast=0;collapsible=1;marginBottom=0;whiteSpace=wrap;html=1;strokeColor=#9673a6;" vertex="1" collapsed="1" parent="1">
          <mxGeometry x="-340" y="500" width="230" height="60" as="geometry">
            <mxRectangle x="390" y="285" width="140" height="78" as="alternateBounds" />
          </mxGeometry>
        </mxCell>
        <mxCell id="BeYtnEABJfwrNFvSlJTl-35" value="+ description: type" style="text;strokeColor=none;fillColor=none;align=left;verticalAlign=top;spacingLeft=4;spacingRight=4;overflow=hidden;rotatable=0;points=[[0,0.5],[1,0.5]];portConstraint=eastwest;whiteSpace=wrap;html=1;" vertex="1" parent="BeYtnEABJfwrNFvSlJTl-34">
          <mxGeometry y="26" width="140" height="26" as="geometry" />
        </mxCell>
        <mxCell id="BeYtnEABJfwrNFvSlJTl-36" value="+ contenu: type" style="text;strokeColor=none;fillColor=none;align=left;verticalAlign=top;spacingLeft=4;spacingRight=4;overflow=hidden;rotatable=0;points=[[0,0.5],[1,0.5]];portConstraint=eastwest;whiteSpace=wrap;html=1;" vertex="1" parent="BeYtnEABJfwrNFvSlJTl-34">
          <mxGeometry y="52" width="140" height="26" as="geometry" />
        </mxCell>
        <mxCell id="BeYtnEABJfwrNFvSlJTl-37" value="COURS" style="swimlane;fontStyle=0;childLayout=stackLayout;horizontal=1;startSize=50;fillColor=#dae8fc;horizontalStack=0;resizeParent=1;resizeParentMax=0;resizeLast=0;collapsible=1;marginBottom=0;whiteSpace=wrap;html=1;strokeColor=#6c8ebf;" vertex="1" collapsed="1" parent="1">
          <mxGeometry x="-340" y="580" width="230" height="50" as="geometry">
            <mxRectangle x="125" y="240" width="140" height="118" as="alternateBounds" />
          </mxGeometry>
        </mxCell>
        <mxCell id="BeYtnEABJfwrNFvSlJTl-38" value="+ niveau : 1" style="text;strokeColor=none;fillColor=none;align=left;verticalAlign=top;spacingLeft=4;spacingRight=4;overflow=hidden;rotatable=0;points=[[0,0.5],[1,0.5]];portConstraint=eastwest;whiteSpace=wrap;html=1;" vertex="1" parent="BeYtnEABJfwrNFvSlJTl-37">
          <mxGeometry y="40" width="140" height="26" as="geometry" />
        </mxCell>
        <mxCell id="BeYtnEABJfwrNFvSlJTl-39" value="+ field: type" style="text;strokeColor=none;fillColor=none;align=left;verticalAlign=top;spacingLeft=4;spacingRight=4;overflow=hidden;rotatable=0;points=[[0,0.5],[1,0.5]];portConstraint=eastwest;whiteSpace=wrap;html=1;" vertex="1" parent="BeYtnEABJfwrNFvSlJTl-37">
          <mxGeometry y="66" width="140" height="26" as="geometry" />
        </mxCell>
        <mxCell id="BeYtnEABJfwrNFvSlJTl-40" value="+ field: type" style="text;strokeColor=none;fillColor=none;align=left;verticalAlign=top;spacingLeft=4;spacingRight=4;overflow=hidden;rotatable=0;points=[[0,0.5],[1,0.5]];portConstraint=eastwest;whiteSpace=wrap;html=1;" vertex="1" parent="BeYtnEABJfwrNFvSlJTl-37">
          <mxGeometry y="92" width="140" height="26" as="geometry" />
        </mxCell>
        <mxCell id="BeYtnEABJfwrNFvSlJTl-41" value="SECTION" style="swimlane;fontStyle=0;childLayout=stackLayout;horizontal=1;startSize=50;fillColor=#ffe6cc;horizontalStack=0;resizeParent=1;resizeParentMax=0;resizeLast=0;collapsible=1;marginBottom=0;whiteSpace=wrap;html=1;strokeColor=#d79b00;" vertex="1" collapsed="1" parent="1">
          <mxGeometry x="-340" y="650" width="230" height="50" as="geometry">
            <mxRectangle x="-85" y="520" width="130" height="76" as="alternateBounds" />
          </mxGeometry>
        </mxCell>
        <mxCell id="BeYtnEABJfwrNFvSlJTl-42" value="scorm" style="text;strokeColor=none;fillColor=none;align=left;verticalAlign=top;spacingLeft=4;spacingRight=4;overflow=hidden;rotatable=0;points=[[0,0.5],[1,0.5]];portConstraint=eastwest;whiteSpace=wrap;html=1;" vertex="1" parent="BeYtnEABJfwrNFvSlJTl-41">
          <mxGeometry y="50" width="130" height="26" as="geometry" />
        </mxCell>
        <mxCell id="BeYtnEABJfwrNFvSlJTl-43" value="Analyse et études statistiques, recherche, enseignement" style="swimlane;fontStyle=0;childLayout=stackLayout;horizontal=1;startSize=60;fillColor=#ffe6cc;horizontalStack=0;resizeParent=1;resizeParentMax=0;resizeLast=0;collapsible=1;marginBottom=0;whiteSpace=wrap;html=1;strokeColor=#d79b00;" vertex="1" collapsed="1" parent="1">
          <mxGeometry x="-1050" y="500" width="110" height="60" as="geometry">
            <mxRectangle x="10" y="400" width="110" height="110" as="alternateBounds" />
          </mxGeometry>
        </mxCell>
        <mxCell id="BeYtnEABJfwrNFvSlJTl-44" value="&lt;div&gt;- Vidéo&lt;/div&gt;&lt;div&gt;- Fichiers&lt;br&gt;&lt;/div&gt;" style="text;strokeColor=none;fillColor=none;align=left;verticalAlign=top;spacingLeft=4;spacingRight=4;overflow=hidden;rotatable=0;points=[[0,0.5],[1,0.5]];portConstraint=eastwest;whiteSpace=wrap;html=1;" vertex="1" parent="BeYtnEABJfwrNFvSlJTl-43">
          <mxGeometry y="60" width="110" height="50" as="geometry" />
        </mxCell>
        <mxCell id="BeYtnEABJfwrNFvSlJTl-45" value="Action régionale, relations avec les APR" style="swimlane;fontStyle=0;childLayout=stackLayout;horizontal=1;startSize=60;fillColor=#ffe6cc;horizontalStack=0;resizeParent=1;resizeParentMax=0;resizeLast=0;collapsible=1;marginBottom=0;whiteSpace=wrap;html=1;strokeColor=#d79b00;" vertex="1" collapsed="1" parent="1">
          <mxGeometry x="-1000" y="580" width="110" height="60" as="geometry">
            <mxRectangle x="10" y="400" width="110" height="110" as="alternateBounds" />
          </mxGeometry>
        </mxCell>
        <mxCell id="BeYtnEABJfwrNFvSlJTl-46" value="&lt;div&gt;- Vidéo&lt;/div&gt;&lt;div&gt;- Fichiers&lt;br&gt;&lt;/div&gt;" style="text;strokeColor=none;fillColor=none;align=left;verticalAlign=top;spacingLeft=4;spacingRight=4;overflow=hidden;rotatable=0;points=[[0,0.5],[1,0.5]];portConstraint=eastwest;whiteSpace=wrap;html=1;" vertex="1" parent="BeYtnEABJfwrNFvSlJTl-45">
          <mxGeometry y="60" width="110" height="50" as="geometry" />
        </mxCell>
        <mxCell id="BeYtnEABJfwrNFvSlJTl-47" value="Informatique" style="swimlane;fontStyle=0;childLayout=stackLayout;horizontal=1;startSize=60;fillColor=#ffe6cc;horizontalStack=0;resizeParent=1;resizeParentMax=0;resizeLast=0;collapsible=1;marginBottom=0;whiteSpace=wrap;html=1;strokeColor=#d79b00;" vertex="1" collapsed="1" parent="1">
          <mxGeometry x="-880" y="620" width="110" height="60" as="geometry">
            <mxRectangle x="10" y="400" width="110" height="110" as="alternateBounds" />
          </mxGeometry>
        </mxCell>
        <mxCell id="BeYtnEABJfwrNFvSlJTl-48" value="&lt;div&gt;- Vidéo&lt;/div&gt;&lt;div&gt;- Fichiers&lt;br&gt;&lt;/div&gt;" style="text;strokeColor=none;fillColor=none;align=left;verticalAlign=top;spacingLeft=4;spacingRight=4;overflow=hidden;rotatable=0;points=[[0,0.5],[1,0.5]];portConstraint=eastwest;whiteSpace=wrap;html=1;" vertex="1" parent="BeYtnEABJfwrNFvSlJTl-47">
          <mxGeometry y="60" width="110" height="50" as="geometry" />
        </mxCell>
        <mxCell id="BeYtnEABJfwrNFvSlJTl-49" value="Fonction support" style="swimlane;fontStyle=0;childLayout=stackLayout;horizontal=1;startSize=60;fillColor=#ffe6cc;horizontalStack=0;resizeParent=1;resizeParentMax=0;resizeLast=0;collapsible=1;marginBottom=0;whiteSpace=wrap;html=1;strokeColor=#d79b00;" vertex="1" collapsed="1" parent="1">
          <mxGeometry x="-750" y="590" width="110" height="60" as="geometry">
            <mxRectangle x="10" y="400" width="110" height="110" as="alternateBounds" />
          </mxGeometry>
        </mxCell>
        <mxCell id="BeYtnEABJfwrNFvSlJTl-50" value="&lt;div&gt;- Vidéo&lt;/div&gt;&lt;div&gt;- Fichiers&lt;br&gt;&lt;/div&gt;" style="text;strokeColor=none;fillColor=none;align=left;verticalAlign=top;spacingLeft=4;spacingRight=4;overflow=hidden;rotatable=0;points=[[0,0.5],[1,0.5]];portConstraint=eastwest;whiteSpace=wrap;html=1;" vertex="1" parent="BeYtnEABJfwrNFvSlJTl-49">
          <mxGeometry y="60" width="110" height="50" as="geometry" />
        </mxCell>
        <mxCell id="BeYtnEABJfwrNFvSlJTl-51" value="Stratégie et pilotage" style="swimlane;fontStyle=0;childLayout=stackLayout;horizontal=1;startSize=60;fillColor=#ffe6cc;horizontalStack=0;resizeParent=1;resizeParentMax=0;resizeLast=0;collapsible=1;marginBottom=0;whiteSpace=wrap;html=1;strokeColor=#d79b00;" vertex="1" collapsed="1" parent="1">
          <mxGeometry x="-690" y="500" width="110" height="60" as="geometry">
            <mxRectangle x="10" y="400" width="110" height="110" as="alternateBounds" />
          </mxGeometry>
        </mxCell>
        <mxCell id="BeYtnEABJfwrNFvSlJTl-52" value="&lt;div&gt;- Vidéo&lt;/div&gt;&lt;div&gt;- Fichiers&lt;br&gt;&lt;/div&gt;" style="text;strokeColor=none;fillColor=none;align=left;verticalAlign=top;spacingLeft=4;spacingRight=4;overflow=hidden;rotatable=0;points=[[0,0.5],[1,0.5]];portConstraint=eastwest;whiteSpace=wrap;html=1;" vertex="1" parent="BeYtnEABJfwrNFvSlJTl-51">
          <mxGeometry y="60" width="110" height="50" as="geometry" />
        </mxCell>
        <mxCell id="BeYtnEABJfwrNFvSlJTl-53" value="" style="endArrow=block;startArrow=block;endFill=1;startFill=1;html=1;rounded=0;" edge="1" parent="1" source="1R7VQAPE6wTlqesCjZck-27" target="BeYtnEABJfwrNFvSlJTl-43">
          <mxGeometry width="160" relative="1" as="geometry">
            <mxPoint x="-777" y="464" as="sourcePoint" />
            <mxPoint x="-900" y="496" as="targetPoint" />
          </mxGeometry>
        </mxCell>
        <mxCell id="BeYtnEABJfwrNFvSlJTl-54" value="" style="endArrow=block;startArrow=block;endFill=1;startFill=1;html=1;rounded=0;exitX=0.375;exitY=0.9;exitDx=0;exitDy=0;exitPerimeter=0;" edge="1" parent="1" source="1R7VQAPE6wTlqesCjZck-27" target="BeYtnEABJfwrNFvSlJTl-45">
          <mxGeometry width="160" relative="1" as="geometry">
            <mxPoint x="-759" y="464" as="sourcePoint" />
            <mxPoint x="-930" y="521" as="targetPoint" />
          </mxGeometry>
        </mxCell>
        <mxCell id="BeYtnEABJfwrNFvSlJTl-55" value="" style="endArrow=block;startArrow=block;endFill=1;startFill=1;html=1;rounded=0;" edge="1" parent="1" source="1R7VQAPE6wTlqesCjZck-27" target="BeYtnEABJfwrNFvSlJTl-47">
          <mxGeometry width="160" relative="1" as="geometry">
            <mxPoint x="-725" y="460" as="sourcePoint" />
            <mxPoint x="-896" y="590" as="targetPoint" />
          </mxGeometry>
        </mxCell>
        <mxCell id="BeYtnEABJfwrNFvSlJTl-56" value="" style="endArrow=block;startArrow=block;endFill=1;startFill=1;html=1;rounded=0;" edge="1" parent="1" source="1R7VQAPE6wTlqesCjZck-27" target="BeYtnEABJfwrNFvSlJTl-49">
          <mxGeometry width="160" relative="1" as="geometry">
            <mxPoint x="-711" y="464" as="sourcePoint" />
            <mxPoint x="-799" y="630" as="targetPoint" />
          </mxGeometry>
        </mxCell>
        <mxCell id="BeYtnEABJfwrNFvSlJTl-57" value="" style="endArrow=block;startArrow=block;endFill=1;startFill=1;html=1;rounded=0;" edge="1" parent="1" source="1R7VQAPE6wTlqesCjZck-27" target="BeYtnEABJfwrNFvSlJTl-51">
          <mxGeometry width="160" relative="1" as="geometry">
            <mxPoint x="-698" y="464" as="sourcePoint" />
            <mxPoint x="-687" y="600" as="targetPoint" />
          </mxGeometry>
        </mxCell>
        <mxCell id="BeYtnEABJfwrNFvSlJTl-58" value="" style="endArrow=block;startArrow=block;endFill=1;startFill=1;html=1;rounded=0;" edge="1" parent="1" source="BeYtnEABJfwrNFvSlJTl-18" target="1R7VQAPE6wTlqesCjZck-27">
          <mxGeometry width="160" relative="1" as="geometry">
            <mxPoint x="-920" y="201" as="sourcePoint" />
            <mxPoint x="-982" y="230" as="targetPoint" />
          </mxGeometry>
        </mxCell>
      </root>
    </mxGraphModel>
  </diagram>
</mxfile>
